<?xml version="1.0" standalone="no"?>
<!DOCTYPE svg PUBLIC "-//W3C//DTD SVG 20010904//EN"
 "http://www.w3.org/TR/2001/REC-SVG-20010904/DTD/svg10.dtd">
<svg version="1.0" xmlns="http://www.w3.org/2000/svg"
 width="16.000000pt" height="16.000000pt" viewBox="0 0 16.000000 16.000000"
 preserveAspectRatio="xMidYMid meet">
<metadata>
Created by potrace 1.11, written by Peter Selinger 2001-2013
</metadata>
<g transform="translate(0.000000,16.000000) scale(0.002286,-0.002286)"
fill="#000000" stroke="none">
<path d="M3298 6995 c-2 -1 -41 -5 -88 -9 -100 -7 -225 -22 -295 -36 -27 -5
-61 -12 -75 -14 -198 -36 -503 -126 -657 -193 -21 -9 -40 -17 -43 -18 -84 -25
-465 -231 -605 -328 -56 -39 -270 -200 -275 -208 -3 -3 -25 -23 -50 -44 -84
-69 -229 -214 -365 -365 -93 -103 -287 -374 -355 -495 -153 -272 -219 -414
-301 -652 -33 -96 -82 -266 -94 -321 -2 -9 -8 -37 -14 -62 -11 -49 -13 -63
-35 -195 -34 -204 -40 -302 -40 -570 0 -243 4 -297 40 -550 71 -500 302 -1055
620 -1492 195 -266 439 -517 696 -714 57 -44 108 -82 113 -87 6 -4 48 -33 95
-63 489 -322 1079 -527 1630 -567 127 -9 514 -9 620 1 1375 127 2553 1056
2997 2362 59 174 133 497 149 646 3 35 8 67 10 70 9 17 19 214 18 399 0 188
-6 331 -19 420 -3 19 -7 56 -10 81 -3 25 -7 54 -9 65 -2 10 -11 60 -21 109
-98 525 -337 1054 -671 1480 -43 55 -83 105 -88 112 -343 376 -541 542 -906
761 -299 179 -695 333 -1047 407 -99 20 -244 43 -393 60 -54 7 -526 16 -532
10z"/>
</g>
</svg>
